Coordinates
version=1
nRows=23
nColumns=23
inDegrees=yes

Units are S.I. units (second, meters, Newtons, ...)
If the header above contains a line with 'inDegrees', this indicates whether rotational values are in degrees (yes) or radians (no).

endheader
time	pelvis_tilt	pelvis_list	pelvis_rotation	pelvis_tx	pelvis_ty	pelvis_tz	hip_flexion_r	hip_adduction_r	hip_rotation_r	knee_angle_r	knee_angle_r_beta	ankle_angle_r	subtalar_angle_r	mtp_angle_r	hip_flexion_l	hip_adduction_l	hip_rotation_l	knee_angle_l	knee_angle_l_beta	ankle_angle_l	subtalar_angle_l	mtp_angle_l
     22.50000000	     -2.27466832	     -3.87761739	     -4.19671860	      2.04697788	      0.96659036	      1.08735873	     23.75012551	      6.90742233	     -5.86173026	     44.77586942	      0.78148635	     20.90866622	     -6.75482946	      0.00000000	     13.94042875	     -9.91637914	     -2.24617992	     86.02397911	      1.50140167	     -1.44661401	     -7.84912971	      0.00000000
     22.50666667	     -2.14930082	     -3.92193855	     -3.98226208	      2.04569736	      0.96561822	      1.08736967	     22.70076853	      6.77207129	     -6.02492841	     45.07912751	      0.78677920	     22.11069544	     -6.39130137	      0.00000000	     15.57407482	    -10.00125092	     -1.65571152	     87.04687217	      1.51925452	     -0.68577762	     -7.57550283	      0.00000000
     22.51333333	     -1.94430342	     -3.79779670	     -3.96348611	      2.04444394	      0.96532290	      1.08762640	     21.44749249	      6.62537926	     -5.76761062	     45.13893493	      0.78782304	     23.05664883	     -6.26766700	      0.00000000	     16.98666293	     -9.87903427	     -1.32956332	     87.70946405	      1.53081893	     -0.08751686	     -7.63768276	      0.00000000
     22.52000000	     -2.02910642	     -3.68705097	     -3.60124568	      2.04353710	      0.96481325	      1.08732395	     20.42883538	      6.08307831	     -6.53952325	     45.16454488	      0.78827001	     24.32282214	     -4.85882414	      0.00000000	     18.81278993	     -9.73066416	     -0.78361616	     88.29301373	      1.54100380	      0.81328187	     -7.05343569	      0.00000000
     22.52666667	     -2.00724182	     -3.45150250	     -3.52513039	      2.04271646	      0.96516388	      1.08751414	     19.14662208	      5.71400519	     -6.59222647	     44.85237362	      0.78282160	     25.23402050	     -4.38914050	      0.00000000	     20.30463973	     -9.48230652	     -0.60029937	     88.45084770	      1.54375852	      1.45352742	     -6.96892483	      0.00000000
     22.53333333	     -2.11983146	     -3.12747731	     -3.63156792	      2.04197630	      0.96590117	      1.08800267	     17.90489019	      5.37800090	     -6.36810609	     44.28437440	      0.77290814	     25.66277659	     -4.15954392	      0.00000000	     21.80214522	     -9.25008552	     -0.73399317	     88.29367853	      1.54101540	      1.82675344	     -6.92280597	      0.00000000
     22.54000000	     -1.97097459	     -2.97951725	     -3.19274229	      2.04176854	      0.96721218	      1.08757807	     16.20989574	      4.85500004	     -7.13634869	     43.53427723	      0.75981648	     26.54290638	     -2.66236054	      0.00000000	     23.07957499	     -8.92510983	     -0.34837146	     88.02069386	      1.53625092	      2.80606147	     -6.22626712	      0.00000000
     22.54666667	     -2.23300036	     -2.58710927	     -3.30500208	      2.04131912	      0.96860412	      1.08802085	     14.97434224	      4.48392153	     -6.86837377	     42.65204220	      0.74441857	     26.85817612	     -2.35627700	      0.00000000	     24.55793736	     -8.58044663	     -0.61541976	     87.37238076	      1.52493572	      3.21810864	     -6.18774009	      0.00000000
     22.55333333	     -2.50501011	     -2.18630082	     -3.31532432	      2.04106791	      0.97035652	      1.08824025	     13.67095867	      4.07315068	     -6.69290169	     41.61983178	      0.72640310	     27.08536913	     -1.95414122	      0.00000000	     25.97851268	     -8.19167558	     -0.88514433	     86.50523187	      1.50980112	      3.73088922	     -6.05738297	      0.00000000
     22.56000000	     -1.73896707	     -1.99608051	     -2.78891574	      2.04207699	      0.97409080	      1.08763765	     10.83266181	      3.52228667	     -7.60563658	     39.97971041	      0.69777758	     27.15778886	     -0.40461508	      0.00000000	     26.08520577	     -7.72484081	     -0.75222157	     85.22076742	      1.48738298	      4.51377865	     -5.51892861	      0.00000000
     22.56666667	     -1.74195650	     -1.57722691	     -2.65422734	      2.04264267	      0.97711726	      1.08753807	      8.99212871	      3.02874606	     -7.71529975	     38.49493983	      0.67186345	     26.98303293	      0.28795740	      0.00000000	     26.90835165	     -7.17976537	     -1.03102989	     83.75429495	      1.46178821	      4.99474002	     -5.39641807	      0.00000000
     22.57333333	     -1.73127703	     -1.20595817	     -2.46372700	      2.04349435	      0.98052507	      1.08737501	      7.05613044	      2.60181014	     -7.89287978	     36.84557840	      0.64307666	     26.58367807	      1.02174626	      0.00000000	     27.59790793	     -6.64876435	     -1.29382738	     82.04606312	      1.43197394	      5.46597442	     -5.25211730	      0.00000000
     22.58000000	     -1.83026713	     -0.72982617	     -2.24700365	      2.04449609	      0.98406026	      1.08707871	      5.24470905	      2.06601657	     -8.10444078	     35.17723759	      0.61395862	     25.88939739	      1.61543144	      0.00000000	     28.28461685	     -5.94828678	     -1.58933864	     80.09903793	      1.39799194	      5.90247861	     -5.11764081	      0.00000000
     22.58666667	     -1.92245548	     -0.28441596	     -2.00706498	      2.04570644	      0.98788348	      1.08671427	      3.39450723	      1.58627746	     -8.33391021	     33.41301854	      0.58316719	     24.90432157	      2.19760625	      0.00000000	     28.83451431	     -5.24389898	     -1.87603868	     77.91594314	      1.35988975	      6.27526418	     -5.01801525	      0.00000000
     22.59333333	     -2.18307249	      0.22146700	     -1.74904970	      2.04699811	      0.99163440	      1.08627070	      1.77238678	      1.04648712	     -8.61628432	     31.69758168	      0.55322717	     23.58427889	      2.67260471	      0.00000000	     29.46211683	     -4.44627521	     -2.18600524	     75.53215912	      1.31828487	      6.60500731	     -4.88847391	      0.00000000
     22.60000000	     -2.37576139	      0.66340236	     -1.48887812	      2.04848856	      0.99565528	      1.08581729	      0.06363353	      0.59396553	     -8.91739792	     29.91115475	      0.52204813	     22.02049899	      3.23855082	      0.00000000	     29.87517765	     -3.66467831	     -2.44044205	     72.91962661	      1.27268757	      6.86827148	     -4.76969072	      0.00000000
     22.60666667	     -3.05438299	      1.20010973	     -1.33065252	      2.04972786	      0.99903981	      1.08539265	     -0.89488240	      0.00496742	     -9.19532731	     28.48107702	      0.49708857	     20.16121900	      3.68630547	      0.00000000	     30.74319249	     -2.84172904	     -2.84273960	     70.16452240	      1.22460193	      7.09863250	     -4.47357407	      0.00000000
     22.61333333	     -3.06224064	      1.59210683	     -0.95691884	      2.05149756	      1.00343387	      1.08474930	     -2.79507636	     -0.35196216	     -9.59327557	     26.62452274	      0.46468558	     18.11633614	      4.00376250	      0.00000000	     30.72403537	     -1.99375670	     -2.96601442	     67.13043777	      1.17164717	      7.24612520	     -4.41286579	      0.00000000
     22.62000000	     -3.54035901	      2.04803701	     -0.68302862	      2.05298684	      1.00713176	      1.08413368	     -3.93323111	     -0.82982042	     -9.99617834	     25.18166190	      0.43950291	     15.88706389	      4.29462118	      0.00000000	     31.14473643	     -1.12703126	     -3.20074381	     63.96920037	      1.11647317	      7.40329529	     -4.11409561	      0.00000000
     22.62666667	     -3.94611373	      2.39972838	     -0.45254389	      2.05452329	      1.01087615	      1.08359325	     -5.09862783	     -1.17196493	    -10.28950752	     23.75927490	      0.41467757	     13.42120395	      4.51164284	      0.00000000	     31.38252882	     -0.39726058	     -3.45315780	     60.65396402	      1.05861138	      7.51412705	     -3.78010750	      0.00000000
     22.63333333	     -4.56061682	      2.76798004	     -0.21381555	      2.05591556	      1.01420510	      1.08294654	     -5.84491481	     -1.60314342	    -10.75179972	     22.67253460	      0.39571038	     10.94656250	      4.78136115	      0.00000000	     31.76889832	      0.36617379	     -3.71644219	     57.19639584	      0.99826543	      7.66739280	     -3.24773570	      0.00000000
     22.64000000	     -4.94929493	      3.04084361	      0.04397106	      2.05741605	      1.01774531	      1.08228165	     -6.81724564	     -1.89139829	    -11.12415497	     21.55329383	      0.37617594	      8.29046979	      4.93127134	      0.00000000	     31.79519137	      1.06869329	     -3.90520019	     53.57431106	      0.93504812	      7.79657872	     -2.71864714	      0.00000000
     22.64666667	     -5.45176465	      3.27816870	      0.29013408	      2.05886671	      1.02094970	      1.08159231	     -7.50602144	     -2.18725106	    -11.54859882	     20.70701170	      0.36140553	      5.63982072	      5.05074915	      0.00000000	     31.86631478	      1.71533735	     -4.14283867	     49.85593650	      0.87015024	      7.98669310	     -1.98034795	      0.00000000
